<?xml version="1.0" encoding="UTF-8" standalone="no"?>
<!-- Created with Inkscape (http://www.inkscape.org/) -->

<svg
   width="18"
   height="20"
   viewBox="0 0 3.96875 4.4097224"
   version="1.1"
   id="svg1"
   xml:space="preserve"
   xmlns="http://www.w3.org/2000/svg"
   xmlns:svg="http://www.w3.org/2000/svg"><defs
     id="defs1" /><g
     id="layer1"><g
       id="g64-3-1"
       transform="matrix(1.7564759,0,0,1.7517001,-16.675241,-54.434404)"><g
         id="g4"
         transform="translate(-28.669925,-0.53402026)"><path
           id="path56-6-9"
           style="fill:#d56a11;fill-opacity:1;stroke:#ffffff;stroke-width:0;stroke-linecap:round;stroke-linejoin:round"
           d="m 9.5728681,39.223753 v 17.992441 h 0.030145 a 2.9450116,1.2813625 0 0 0 -0.021963,0.145555 2.9450116,1.2813625 0 0 0 2.9446959,1.281576 2.9450116,1.2813625 0 0 0 2.945125,-1.281576 2.9450116,1.2813625 0 0 0 -0.01981,-0.145555 h 0.03359 V 39.223753 Z" /><rect
           style="fill:#000000;fill-opacity:0.054878;stroke:#ffffff;stroke-width:0;stroke-linecap:round;stroke-linejoin:round"
           id="rect58-7-0"
           width="5.9098582"
           height="6.4116845"
           x="9.5771637"
           y="32.729912"
           ry="0" /><ellipse
           style="fill:#b2b7ba;fill-opacity:1;stroke:#ffffff;stroke-width:0;stroke-linecap:round;stroke-linejoin:round"
           id="ellipse58-6-6"
           cx="12.565858"
           cy="32.637096"
           rx="2.9622371"
           ry="1.2813625" /><ellipse
           style="fill:#fd7e14;fill-opacity:1;stroke:#ffffff;stroke-width:0;stroke-linecap:round;stroke-linejoin:round"
           id="ellipse59-0-6"
           cx="12.533625"
           cy="39.146969"
           rx="2.9622371"
           ry="1.2813625" /></g><g
         id="g7"
         transform="translate(15.142737,-7.3044552)"><rect
           style="fill:#005f7d;fill-opacity:1;stroke:#ffffff;stroke-width:0;stroke-linecap:round;stroke-linejoin:round"
           id="rect6"
           width="14.977079"
           height="4.5807533"
           x="8.7691031"
           y="32.639568"
           ry="2.2903767" /><ellipse
           style="fill:#ffffff;fill-opacity:1;stroke:#ffffff;stroke-width:0;stroke-linecap:round;stroke-linejoin:round"
           id="path7"
           cx="21.495266"
           cy="34.929947"
           rx="1.741942"
           ry="1.7466912" /></g><rect
         style="fill:#ffffff;stroke:#ffffff;stroke-width:0;stroke-linecap:round;stroke-linejoin:round"
         id="rect7-1-5"
         width="1.4436327"
         height="0.71252823"
         x="20.153305"
         y="28.442873"
         ry="0.35626411" /><g
         id="g9"
         transform="translate(0.74303016,-0.39332321)"><path
           id="path1-8"
           style="stroke-width:0.00253944"
           d="m 9.8828348,31.499726 c -0.04489,0 -0.08115,0.03636 -0.08115,0.08137 v 0.162746 h -0.304258 c -0.100921,0 -0.182652,0.08194 -0.182652,0.18315 v 0.691792 c 0,0.10121 0.08173,0.182905 0.182652,0.182905 h 0.7708182 c 0.100931,0 0.182652,-0.0817 0.182652,-0.182905 v -0.691789 c 0,-0.101209 -0.08172,-0.18315 -0.182652,-0.18315 H 9.9639883 v -0.162746 c 0,-0.04502 -0.03627,-0.08137 -0.08115,-0.08137 z m -0.243455,0.54896 a 0.10143982,0.10171638 0 0 1 0.101501,0.102023 0.101501,0.10177773 0 1 1 -0.203001,0 0.10143982,0.10171638 0 0 1 0.1015,-0.102023 z m 0.4869102,4.91e-4 a 0.10143958,0.10171615 0 1 1 0,0.20331 0.10143958,0.10171615 0 1 1 0,-0.20331 z m -0.9331212,0.02016 c -0.0672,0 -0.12185,0.0548 -0.12185,0.122182 v 0.244119 c 0,0.06739 0.05465,0.121936 0.12185,0.121936 h 0.04045 v -0.488237 z m 1.3388792,0 v 0.488237 h 0.0407 c 0.0672,0 0.121605,-0.05455 0.121605,-0.121936 v -0.244119 c 0,-0.06738 -0.05441,-0.122182 -0.121605,-0.122182 z m -0.9331212,0.406864 h 0.08115 c 0.02231,0 0.04045,0.01844 0.04045,0.04081 0,0.02237 -0.01813,0.04056 -0.04045,0.04056 h -0.08115 c -0.02231,0 -0.0407,-0.01819 -0.0407,-0.04056 0,-0.02237 0.01838,-0.04081 0.0407,-0.04081 z m 0.243455,0 h 0.081152 c 0.02231,0 0.04045,0.01844 0.04045,0.04081 0,0.02237 -0.01813,0.04056 -0.04045,0.04056 h -0.081152 c -0.02231,0 -0.0407,-0.01819 -0.0407,-0.04056 0,-0.02237 0.01838,-0.04081 0.0407,-0.04081 z m 0.2434552,0 h 0.08115 c 0.02232,0 0.04045,0.01844 0.04045,0.04081 0,0.02237 -0.01813,0.04056 -0.04045,0.04056 h -0.08115 c -0.02231,0 -0.0407,-0.01819 -0.0407,-0.04056 0,-0.02237 0.01838,-0.04081 0.0407,-0.04081 z m -1.0348672,0.08998 c -0.138977,0 -0.253095,0.10714 -0.271895,0.247068 h 0.541583 v -0.0042 h 0.0015 C 9.3017178,32.671124 9.1886138,32.56616 9.0509988,32.56616 Z m 1.6553952,0.0118 c -0.13361,0 -0.243933,0.09909 -0.268953,0.231089 h 0.0012 v 0.0093 h 0.538886 v -0.0091 h -0.002 c -0.02488,-0.132164 -0.135473,-0.231335 -0.269197,-0.231335 z m -1.9302322,0.299186 v 0.143817 h 0.549183 v 0.06392 h -0.549183 v 0.13472 h 0.555067 v 0.06392 h -0.555067 v 0.139391 h 0.549674 v 0.06392 h -0.549674 v 0.1566 h 0.547222 v 0.06392 h -0.54477 c 0.01694,0.142132 0.131928,0.251494 0.272385,0.251494 0.126522,0 0.232385,-0.08871 0.26454,-0.210193 0.0028,4.04e-4 0.0057,6.43e-4 0.0086,9.84e-4 v -0.10227 h 1.1157732 v 0.104482 c 0.02938,0.125803 0.137063,0.218797 0.266501,0.218797 0.131125,0 0.239832,-0.09541 0.267481,-0.223714 h 0.0037 v -0.0209 c 9.66e-4,-0.0068 0.0018,-0.01374 0.0025,-0.02065 h -0.53864 v -0.06392 h 0.539621 v -0.166433 h -0.53717 v -0.06392 h 0.53717 V 33.269774 H 10.44167 v -0.06392 h 0.539376 v -0.136689 h -0.541337 v -0.06392 h 0.541337 v -0.12292 h -0.543299 v -0.0037 H 9.3207478 v -0.0015 z" /><rect
           style="fill:#ffffff;fill-opacity:0;stroke:#000000;stroke-width:0.0441398;stroke-linecap:round;stroke-linejoin:round;stroke-dasharray:none;stroke-opacity:1"
           id="rect14"
           width="0.015146968"
           height="0.20005138"
           x="13.74777"
           y="36.042564" /></g></g></g></svg>
